<?xml version="1.0" encoding="utf-8"?>
<!-- Generator: Adobe Illustrator 17.0.0, SVG Export Plug-In . SVG Version: 6.00 Build 0)  -->
<!DOCTYPE svg PUBLIC "-//W3C//DTD SVG 1.1//EN" "http://www.w3.org/Graphics/SVG/1.1/DTD/svg11.dtd">
<svg version="1.1" id="Layer_1" xmlns="http://www.w3.org/2000/svg" xmlns:xlink="http://www.w3.org/1999/xlink" x="0px" y="0px"
	 width="1200px" height="1200px" viewBox="0 0 1200 1200" enable-background="new 0 0 1200 1200" xml:space="preserve">
<g>
	<path fill="#FEEDE0" d="M922.839,493.098c-57.352,178.278-248.42,276.327-426.707,218.965
		c-178.288-57.37-276.326-248.41-218.957-426.696c57.362-178.28,248.392-276.338,426.68-218.986
		C882.133,123.772,980.181,314.801,922.839,493.098z"/>
	<path fill="#EA543B" d="M703.855,66.381c-178.288-57.352-369.318,40.706-426.68,218.986
		c-57.37,178.286,40.669,369.326,218.957,426.696c178.288,57.362,369.355-40.687,426.707-218.965
		C980.181,314.801,882.133,123.772,703.855,66.381z M515.698,651.247C370.978,604.7,291.407,449.642,337.973,304.931
		c46.556-144.72,201.595-224.291,346.316-177.752c144.71,46.566,224.301,201.633,177.735,346.343
		C815.465,618.232,660.399,697.803,515.698,651.247z"/>
	<path fill="#EA543B" d="M428.691,1115.148c-8.456,26.39-36.746,40.927-63.136,32.422l0,0c-26.39-8.495-40.888-36.763-32.403-63.126
		l121.08-376.388c8.513-26.419,36.764-40.907,63.154-32.422l0,0c26.409,8.493,40.888,36.763,32.412,63.136L428.691,1115.148z"/>
	<path fill="#EFB19A" d="M411.092,324.249c0.631-2.252,1.28-4.506,1.986-6.757c14.803-45.947,45.497-82.3,84.114-104.948
		c12.942-36.077-23.698-36.126-23.698-36.126s0.201-0.43,0.496-1.04c-47.063,27.975-84.544,72.47-102.62,128.686
		c-0.305,0.954-0.534,1.947-0.831,2.883C376.551,339.177,409.012,325.194,411.092,324.249z"/>
</g>
</svg>
